<mxfile host="65bd71144e">
    <diagram id="Zo9f5t6lwoJUL_4hhpEF" name="Page-1">
        <mxGraphModel dx="1580" dy="1348" grid="1" gridSize="10" guides="1" tooltips="1" connect="1" arrows="1" fold="1" page="1" pageScale="1" pageWidth="1169" pageHeight="827" math="0" shadow="0">
            <root>
                <mxCell id="0"/>
                <mxCell id="1" parent="0"/>
                <mxCell id="15" style="edgeStyle=none;html=1;fontSize=22;endArrow=none;endFill=0;" parent="1" source="2" target="4" edge="1">
                    <mxGeometry relative="1" as="geometry"/>
                </mxCell>
                <mxCell id="16" style="edgeStyle=none;html=1;fontSize=22;endArrow=none;endFill=0;" parent="1" source="2" target="3" edge="1">
                    <mxGeometry relative="1" as="geometry"/>
                </mxCell>
                <mxCell id="17" style="edgeStyle=none;html=1;entryX=0;entryY=0.5;entryDx=0;entryDy=0;fontSize=22;endArrow=none;endFill=0;" parent="1" source="2" target="5" edge="1">
                    <mxGeometry relative="1" as="geometry"/>
                </mxCell>
                <mxCell id="2" value="ISPs" style="ellipse;shape=cloud;whiteSpace=wrap;html=1;fontSize=33;fontStyle=1" parent="1" vertex="1">
                    <mxGeometry x="270" y="240" width="430" height="240" as="geometry"/>
                </mxCell>
                <mxCell id="3" value="" style="whiteSpace=wrap;html=1;fillColor=#fff2cc;strokeColor=#d6b656;" parent="1" vertex="1">
                    <mxGeometry x="767.5" y="335" width="120" height="60" as="geometry"/>
                </mxCell>
                <mxCell id="4" value="" style="whiteSpace=wrap;html=1;fillColor=#fff2cc;strokeColor=#d6b656;" parent="1" vertex="1">
                    <mxGeometry x="847.5" y="95" width="120" height="60" as="geometry"/>
                </mxCell>
                <mxCell id="5" value="" style="whiteSpace=wrap;html=1;fillColor=#fff2cc;strokeColor=#d6b656;" parent="1" vertex="1">
                    <mxGeometry x="837.5" y="595" width="120" height="60" as="geometry"/>
                </mxCell>
                <mxCell id="14" style="edgeStyle=none;html=1;entryX=0.14;entryY=0.5;entryDx=0;entryDy=0;entryPerimeter=0;fontSize=22;endArrow=none;endFill=0;" parent="1" source="6" target="2" edge="1">
                    <mxGeometry relative="1" as="geometry"/>
                </mxCell>
                <mxCell id="6" value="" style="whiteSpace=wrap;html=1;fillColor=#fff2cc;strokeColor=#d6b656;" parent="1" vertex="1">
                    <mxGeometry x="50" y="335" width="120" height="60" as="geometry"/>
                </mxCell>
                <mxCell id="10" value="172.16.20.2 17" style="text;strokeColor=none;align=center;fillColor=none;html=1;verticalAlign=middle;whiteSpace=wrap;rounded=0;fontSize=22;fontStyle=1" parent="1" vertex="1">
                    <mxGeometry x="782.5" y="60" width="230" height="30" as="geometry"/>
                </mxCell>
                <mxCell id="11" value="172.16.20.1 16" style="text;strokeColor=none;align=center;fillColor=none;html=1;verticalAlign=middle;whiteSpace=wrap;rounded=0;fontSize=22;fontStyle=1" parent="1" vertex="1">
                    <mxGeometry y="305" width="230" height="30" as="geometry"/>
                </mxCell>
                <mxCell id="12" value="172.16.20.3 18" style="text;strokeColor=none;align=center;fillColor=none;html=1;verticalAlign=middle;whiteSpace=wrap;rounded=0;fontSize=22;fontStyle=1" parent="1" vertex="1">
                    <mxGeometry x="727.5" y="290" width="230" height="30" as="geometry"/>
                </mxCell>
                <mxCell id="13" value="172.16.20.4 19" style="text;strokeColor=none;align=center;fillColor=none;html=1;verticalAlign=middle;whiteSpace=wrap;rounded=0;fontSize=22;fontStyle=1" parent="1" vertex="1">
                    <mxGeometry x="782.5" y="550" width="230" height="30" as="geometry"/>
                </mxCell>
                <mxCell id="18" value="" style="edgeStyle=none;orthogonalLoop=1;jettySize=auto;html=1;fontSize=33;endArrow=none;endFill=0;dashed=1;strokeWidth=2;" parent="1" target="2" edge="1">
                    <mxGeometry width="80" relative="1" as="geometry">
                        <mxPoint x="160" y="240" as="sourcePoint"/>
                        <mxPoint x="350" y="20" as="targetPoint"/>
                        <Array as="points"/>
                    </mxGeometry>
                </mxCell>
                <mxCell id="20" value="" style="edgeStyle=none;orthogonalLoop=1;jettySize=auto;html=1;fontSize=33;endArrow=none;endFill=0;dashed=1;strokeWidth=2;" parent="1" target="2" edge="1">
                    <mxGeometry width="80" relative="1" as="geometry">
                        <mxPoint x="120" y="500" as="sourcePoint"/>
                        <mxPoint x="370" y="580" as="targetPoint"/>
                        <Array as="points"/>
                    </mxGeometry>
                </mxCell>
                <mxCell id="21" value="" style="edgeStyle=none;orthogonalLoop=1;jettySize=auto;html=1;dashed=1;strokeWidth=2;fontSize=33;endArrow=none;endFill=0;" parent="1" edge="1">
                    <mxGeometry width="80" relative="1" as="geometry">
                        <mxPoint x="987.5" y="130" as="sourcePoint"/>
                        <mxPoint x="1067.5" y="130" as="targetPoint"/>
                        <Array as="points"/>
                    </mxGeometry>
                </mxCell>
                <mxCell id="22" value="" style="edgeStyle=none;orthogonalLoop=1;jettySize=auto;html=1;dashed=1;strokeWidth=2;fontSize=33;endArrow=none;endFill=0;" parent="1" edge="1">
                    <mxGeometry width="80" relative="1" as="geometry">
                        <mxPoint x="920" y="359.09000000000003" as="sourcePoint"/>
                        <mxPoint x="1000" y="359.09000000000003" as="targetPoint"/>
                        <Array as="points"/>
                    </mxGeometry>
                </mxCell>
                <mxCell id="24" value="" style="edgeStyle=none;orthogonalLoop=1;jettySize=auto;html=1;dashed=1;strokeWidth=2;fontSize=33;endArrow=none;endFill=0;" parent="1" edge="1">
                    <mxGeometry width="80" relative="1" as="geometry">
                        <mxPoint x="980" y="624.0900000000001" as="sourcePoint"/>
                        <mxPoint x="1060" y="624.0900000000001" as="targetPoint"/>
                        <Array as="points"/>
                    </mxGeometry>
                </mxCell>
            </root>
        </mxGraphModel>
    </diagram>
    <diagram id="keqtn6OOYpOCEUZ6xZvs" name="Page-2">
        <mxGraphModel dx="1404" dy="1198" grid="1" gridSize="10" guides="1" tooltips="1" connect="1" arrows="1" fold="1" page="1" pageScale="1" pageWidth="1169" pageHeight="827" math="0" shadow="0">
            <root>
                <mxCell id="0"/>
                <mxCell id="1" parent="0"/>
                <mxCell id="F2LlyOwwkW2-erezmSSB-1" style="edgeStyle=none;html=1;fontSize=22;endArrow=none;endFill=0;" parent="1" source="F2LlyOwwkW2-erezmSSB-4" target="F2LlyOwwkW2-erezmSSB-6" edge="1">
                    <mxGeometry relative="1" as="geometry"/>
                </mxCell>
                <mxCell id="F2LlyOwwkW2-erezmSSB-2" style="edgeStyle=none;html=1;fontSize=22;endArrow=none;endFill=0;" parent="1" source="F2LlyOwwkW2-erezmSSB-4" target="F2LlyOwwkW2-erezmSSB-5" edge="1">
                    <mxGeometry relative="1" as="geometry"/>
                </mxCell>
                <mxCell id="F2LlyOwwkW2-erezmSSB-3" style="edgeStyle=none;html=1;entryX=0;entryY=0.5;entryDx=0;entryDy=0;fontSize=22;endArrow=none;endFill=0;" parent="1" source="F2LlyOwwkW2-erezmSSB-4" target="F2LlyOwwkW2-erezmSSB-7" edge="1">
                    <mxGeometry relative="1" as="geometry"/>
                </mxCell>
                <mxCell id="F2LlyOwwkW2-erezmSSB-4" value="ISPs" style="ellipse;shape=cloud;whiteSpace=wrap;html=1;fontSize=33;fontStyle=1" parent="1" vertex="1">
                    <mxGeometry x="270" y="240" width="430" height="240" as="geometry"/>
                </mxCell>
                <mxCell id="F2LlyOwwkW2-erezmSSB-5" value="" style="whiteSpace=wrap;html=1;fillColor=#fff2cc;strokeColor=#d6b656;" parent="1" vertex="1">
                    <mxGeometry x="767.5" y="335" width="120" height="60" as="geometry"/>
                </mxCell>
                <mxCell id="F2LlyOwwkW2-erezmSSB-6" value="" style="whiteSpace=wrap;html=1;fillColor=#fff2cc;strokeColor=#d6b656;" parent="1" vertex="1">
                    <mxGeometry x="847.5" y="95" width="120" height="60" as="geometry"/>
                </mxCell>
                <mxCell id="F2LlyOwwkW2-erezmSSB-7" value="" style="whiteSpace=wrap;html=1;fillColor=#fff2cc;strokeColor=#d6b656;" parent="1" vertex="1">
                    <mxGeometry x="837.5" y="595" width="120" height="60" as="geometry"/>
                </mxCell>
                <mxCell id="F2LlyOwwkW2-erezmSSB-8" style="edgeStyle=none;html=1;fontSize=22;endArrow=none;endFill=0;" parent="1" source="F2LlyOwwkW2-erezmSSB-9" edge="1">
                    <mxGeometry relative="1" as="geometry">
                        <mxPoint x="300" y="365" as="targetPoint"/>
                    </mxGeometry>
                </mxCell>
                <mxCell id="F2LlyOwwkW2-erezmSSB-9" value="" style="whiteSpace=wrap;html=1;fillColor=#fff2cc;strokeColor=#d6b656;" parent="1" vertex="1">
                    <mxGeometry x="50" y="335" width="120" height="60" as="geometry"/>
                </mxCell>
                <mxCell id="F2LlyOwwkW2-erezmSSB-10" value="172.16.20.2 17" style="text;strokeColor=none;align=center;fillColor=none;html=1;verticalAlign=middle;whiteSpace=wrap;rounded=0;fontSize=22;fontStyle=1" parent="1" vertex="1">
                    <mxGeometry x="782.5" y="60" width="230" height="30" as="geometry"/>
                </mxCell>
                <mxCell id="F2LlyOwwkW2-erezmSSB-11" value="172.16.20.1" style="text;strokeColor=none;align=center;fillColor=none;html=1;verticalAlign=middle;whiteSpace=wrap;rounded=0;fontSize=22;fontStyle=1" parent="1" vertex="1">
                    <mxGeometry y="305" width="230" height="30" as="geometry"/>
                </mxCell>
                <mxCell id="F2LlyOwwkW2-erezmSSB-12" value="172.16.20.3 18" style="text;strokeColor=none;align=center;fillColor=none;html=1;verticalAlign=middle;whiteSpace=wrap;rounded=0;fontSize=22;fontStyle=1" parent="1" vertex="1">
                    <mxGeometry x="727.5" y="290" width="230" height="30" as="geometry"/>
                </mxCell>
                <mxCell id="F2LlyOwwkW2-erezmSSB-13" value="172.16.20.4 19" style="text;strokeColor=none;align=center;fillColor=none;html=1;verticalAlign=middle;whiteSpace=wrap;rounded=0;fontSize=22;fontStyle=1" parent="1" vertex="1">
                    <mxGeometry x="782.5" y="550" width="230" height="30" as="geometry"/>
                </mxCell>
                <mxCell id="F2LlyOwwkW2-erezmSSB-14" value="" style="edgeStyle=none;orthogonalLoop=1;jettySize=auto;html=1;fontSize=33;endArrow=none;endFill=0;dashed=1;strokeWidth=2;entryX=0.147;entryY=0.264;entryDx=0;entryDy=0;entryPerimeter=0;" parent="1" target="F2LlyOwwkW2-erezmSSB-4" edge="1">
                    <mxGeometry width="80" relative="1" as="geometry">
                        <mxPoint x="160" y="240" as="sourcePoint"/>
                        <mxPoint x="350" y="20" as="targetPoint"/>
                        <Array as="points"/>
                    </mxGeometry>
                </mxCell>
                <mxCell id="F2LlyOwwkW2-erezmSSB-15" value="" style="edgeStyle=none;orthogonalLoop=1;jettySize=auto;html=1;fontSize=33;endArrow=none;endFill=0;dashed=1;strokeWidth=2;" parent="1" target="F2LlyOwwkW2-erezmSSB-4" edge="1">
                    <mxGeometry width="80" relative="1" as="geometry">
                        <mxPoint x="160" y="500" as="sourcePoint"/>
                        <mxPoint x="370" y="580" as="targetPoint"/>
                        <Array as="points"/>
                    </mxGeometry>
                </mxCell>
                <mxCell id="F2LlyOwwkW2-erezmSSB-16" value="" style="edgeStyle=none;orthogonalLoop=1;jettySize=auto;html=1;dashed=1;strokeWidth=2;fontSize=33;endArrow=none;endFill=0;" parent="1" edge="1">
                    <mxGeometry width="80" relative="1" as="geometry">
                        <mxPoint x="987.5" y="130" as="sourcePoint"/>
                        <mxPoint x="1067.5" y="130" as="targetPoint"/>
                        <Array as="points"/>
                    </mxGeometry>
                </mxCell>
                <mxCell id="F2LlyOwwkW2-erezmSSB-17" value="" style="edgeStyle=none;orthogonalLoop=1;jettySize=auto;html=1;dashed=1;strokeWidth=2;fontSize=33;endArrow=none;endFill=0;" parent="1" edge="1">
                    <mxGeometry width="80" relative="1" as="geometry">
                        <mxPoint x="920" y="359.09000000000015" as="sourcePoint"/>
                        <mxPoint x="1000" y="359.09000000000015" as="targetPoint"/>
                        <Array as="points"/>
                    </mxGeometry>
                </mxCell>
                <mxCell id="F2LlyOwwkW2-erezmSSB-18" value="" style="edgeStyle=none;orthogonalLoop=1;jettySize=auto;html=1;dashed=1;strokeWidth=2;fontSize=33;endArrow=none;endFill=0;" parent="1" edge="1">
                    <mxGeometry width="80" relative="1" as="geometry">
                        <mxPoint x="980" y="624.0900000000001" as="sourcePoint"/>
                        <mxPoint x="1060" y="624.0900000000001" as="targetPoint"/>
                        <Array as="points"/>
                    </mxGeometry>
                </mxCell>
                <mxCell id="F2LlyOwwkW2-erezmSSB-19" value="172.16.30.0" style="text;strokeColor=none;align=center;fillColor=none;html=1;verticalAlign=middle;whiteSpace=wrap;rounded=0;fontSize=22;fontStyle=1" parent="1" vertex="1">
                    <mxGeometry x="1010" y="80" width="230" height="30" as="geometry"/>
                </mxCell>
                <mxCell id="F2LlyOwwkW2-erezmSSB-20" value="172.16.40.0" style="text;strokeColor=none;align=center;fillColor=none;html=1;verticalAlign=middle;whiteSpace=wrap;rounded=0;fontSize=22;fontStyle=1" parent="1" vertex="1">
                    <mxGeometry x="939" y="320" width="230" height="30" as="geometry"/>
                </mxCell>
                <mxCell id="F2LlyOwwkW2-erezmSSB-21" value="172.16.50.0" style="text;strokeColor=none;align=center;fillColor=none;html=1;verticalAlign=middle;whiteSpace=wrap;rounded=0;fontSize=22;fontStyle=1" parent="1" vertex="1">
                    <mxGeometry x="967.5" y="580" width="230" height="30" as="geometry"/>
                </mxCell>
                <mxCell id="F2LlyOwwkW2-erezmSSB-22" value="" style="whiteSpace=wrap;html=1;fillColor=#fff2cc;strokeColor=#d6b656;" parent="1" vertex="1">
                    <mxGeometry x="30" y="190" width="120" height="60" as="geometry"/>
                </mxCell>
                <mxCell id="F2LlyOwwkW2-erezmSSB-23" value="" style="whiteSpace=wrap;html=1;fillColor=#fff2cc;strokeColor=#d6b656;" parent="1" vertex="1">
                    <mxGeometry x="20" y="490" width="120" height="60" as="geometry"/>
                </mxCell>
                <mxCell id="F2LlyOwwkW2-erezmSSB-24" value="5 Mbps" style="text;strokeColor=#b46504;align=center;fillColor=#fad7ac;html=1;verticalAlign=middle;whiteSpace=wrap;rounded=0;fontSize=33;fontStyle=1;" parent="1" vertex="1">
                    <mxGeometry x="170" y="190" width="130" height="30" as="geometry"/>
                </mxCell>
                <mxCell id="F2LlyOwwkW2-erezmSSB-25" value="3 Mbps" style="text;strokeColor=#0e8088;align=center;fillColor=#b0e3e6;html=1;verticalAlign=middle;whiteSpace=wrap;rounded=0;fontSize=33;fontStyle=1;" parent="1" vertex="1">
                    <mxGeometry x="176" y="384" width="130" height="30" as="geometry"/>
                </mxCell>
                <mxCell id="F2LlyOwwkW2-erezmSSB-26" value="2 Mbps" style="text;strokeColor=#ae4132;align=center;fillColor=#fad9d5;html=1;verticalAlign=middle;whiteSpace=wrap;rounded=0;fontSize=33;fontStyle=1;" parent="1" vertex="1">
                    <mxGeometry x="160" y="520" width="130" height="30" as="geometry"/>
                </mxCell>
            </root>
        </mxGraphModel>
    </diagram>
    <diagram id="vKj57dSmICfRrErn5yGr" name="Page-3">
        <mxGraphModel dx="1053" dy="898" grid="1" gridSize="10" guides="1" tooltips="1" connect="1" arrows="1" fold="1" page="1" pageScale="1" pageWidth="1169" pageHeight="827" math="0" shadow="0">
            <root>
                <mxCell id="0"/>
                <mxCell id="1" parent="0"/>
                <mxCell id="y_RgTuzRz2s9mC7Qi_Bl-1" value="" style="line;strokeWidth=4;direction=south;html=1;perimeter=backbonePerimeter;points=[];outlineConnect=0;fontSize=33;" parent="1" vertex="1">
                    <mxGeometry x="130" y="190" width="10" height="390" as="geometry"/>
                </mxCell>
                <mxCell id="y_RgTuzRz2s9mC7Qi_Bl-2" value="" style="line;strokeWidth=4;html=1;perimeter=backbonePerimeter;points=[];outlineConnect=0;fontSize=33;" parent="1" vertex="1">
                    <mxGeometry x="130" y="570" width="640" height="23.13" as="geometry"/>
                </mxCell>
                <mxCell id="y_RgTuzRz2s9mC7Qi_Bl-3" value="" style="edgeStyle=none;orthogonalLoop=1;jettySize=auto;html=1;dashed=1;strokeWidth=2;fontSize=33;endArrow=none;endFill=0;" parent="1" edge="1">
                    <mxGeometry width="80" relative="1" as="geometry">
                        <mxPoint x="140" y="470" as="sourcePoint"/>
                        <mxPoint x="690" y="470" as="targetPoint"/>
                        <Array as="points"/>
                    </mxGeometry>
                </mxCell>
                <mxCell id="y_RgTuzRz2s9mC7Qi_Bl-4" value="" style="edgeStyle=orthogonalEdgeStyle;orthogonalLoop=1;jettySize=auto;html=1;dashed=1;strokeWidth=2;fontSize=33;endArrow=none;endFill=0;elbow=vertical;curved=1;" parent="1" edge="1">
                    <mxGeometry width="80" relative="1" as="geometry">
                        <mxPoint x="140" y="470" as="sourcePoint"/>
                        <mxPoint x="640" y="220" as="targetPoint"/>
                        <Array as="points">
                            <mxPoint x="640" y="470"/>
                        </Array>
                    </mxGeometry>
                </mxCell>
            </root>
        </mxGraphModel>
    </diagram>
    <diagram id="gtc7XmG-ETNaefqTyvh7" name="NAT">
        <mxGraphModel dx="1801" dy="539" grid="1" gridSize="10" guides="1" tooltips="1" connect="1" arrows="1" fold="1" page="1" pageScale="1" pageWidth="1169" pageHeight="827" math="0" shadow="0">
            <root>
                <mxCell id="0"/>
                <mxCell id="1" parent="0"/>
                <mxCell id="04q5fii_ImJaS9s3ek6Y-1" value="A" style="whiteSpace=wrap;html=1;fontSize=33;fillColor=#fff2cc;strokeColor=#d6b656;fontStyle=1" parent="1" vertex="1">
                    <mxGeometry x="240" y="365" width="120" height="60" as="geometry"/>
                </mxCell>
                <mxCell id="04q5fii_ImJaS9s3ek6Y-2" value="" style="edgeStyle=none;orthogonalLoop=1;jettySize=auto;html=1;dashed=1;strokeWidth=2;fontSize=33;endArrow=none;endFill=0;curved=1;elbow=vertical;" parent="1" edge="1">
                    <mxGeometry width="80" relative="1" as="geometry">
                        <mxPoint x="90" y="394" as="sourcePoint"/>
                        <mxPoint x="230" y="394" as="targetPoint"/>
                        <Array as="points"/>
                    </mxGeometry>
                </mxCell>
                <mxCell id="04q5fii_ImJaS9s3ek6Y-5" value="" style="edgeStyle=none;orthogonalLoop=1;jettySize=auto;html=1;dashed=1;strokeWidth=2;fontSize=33;endArrow=none;endFill=0;curved=1;elbow=vertical;" parent="1" edge="1">
                    <mxGeometry width="80" relative="1" as="geometry">
                        <mxPoint x="400" y="401" as="sourcePoint"/>
                        <mxPoint x="680" y="401" as="targetPoint"/>
                        <Array as="points"/>
                    </mxGeometry>
                </mxCell>
                <mxCell id="04q5fii_ImJaS9s3ek6Y-6" value="Internet" style="ellipse;shape=cloud;whiteSpace=wrap;html=1;fontSize=33;fillColor=#f8cecc;strokeColor=#b85450;fontStyle=1" parent="1" vertex="1">
                    <mxGeometry x="670" y="290" width="450" height="210" as="geometry"/>
                </mxCell>
                <mxCell id="04q5fii_ImJaS9s3ek6Y-7" value="g0/1" style="text;strokeColor=none;align=left;fillColor=none;html=1;verticalAlign=middle;whiteSpace=wrap;rounded=0;fontSize=33;fontStyle=1" parent="1" vertex="1">
                    <mxGeometry x="380" y="330" width="80" height="50" as="geometry"/>
                </mxCell>
                <mxCell id="04q5fii_ImJaS9s3ek6Y-8" value="g0/0" style="text;strokeColor=none;align=left;fillColor=none;html=1;verticalAlign=middle;whiteSpace=wrap;rounded=0;fontSize=33;fontStyle=1" parent="1" vertex="1">
                    <mxGeometry x="155" y="321" width="85" height="70" as="geometry"/>
                </mxCell>
                <mxCell id="04q5fii_ImJaS9s3ek6Y-9" value="&lt;span style=&quot;font-weight: 700; text-align: left;&quot;&gt;202.208.220.1&lt;br&gt;202.208.220.2&lt;br&gt;.&lt;br&gt;.&lt;br&gt;.&lt;br&gt;.&lt;br&gt;.&lt;br&gt;&lt;/span&gt;" style="text;strokeColor=none;align=center;fillColor=none;html=1;verticalAlign=middle;whiteSpace=wrap;rounded=0;fontSize=33;" parent="1" vertex="1">
                    <mxGeometry x="240" y="30" width="230" height="320" as="geometry"/>
                </mxCell>
                <mxCell id="04q5fii_ImJaS9s3ek6Y-10" value="&lt;span style=&quot;font-weight: 700; text-align: left;&quot;&gt;172.16.10.1&lt;br&gt;172.16.10.2&lt;br&gt;.&lt;br&gt;.&lt;br&gt;.&lt;br&gt;.&lt;br&gt;.&lt;br&gt;&lt;/span&gt;" style="text;strokeColor=none;align=center;fillColor=none;html=1;verticalAlign=middle;whiteSpace=wrap;rounded=0;fontSize=33;" parent="1" vertex="1">
                    <mxGeometry x="-110" y="414" width="230" height="320" as="geometry"/>
                </mxCell>
                <mxCell id="04q5fii_ImJaS9s3ek6Y-11" value="&lt;span style=&quot;font-weight: 700; text-align: left;&quot;&gt;Inside Local&lt;br&gt;&lt;/span&gt;" style="text;strokeColor=#d6b656;align=center;fillColor=#fff2cc;html=1;verticalAlign=middle;whiteSpace=wrap;rounded=0;fontSize=33;" parent="1" vertex="1">
                    <mxGeometry x="-180" y="290" width="230" height="80" as="geometry"/>
                </mxCell>
                <mxCell id="04q5fii_ImJaS9s3ek6Y-12" value="&lt;span style=&quot;font-weight: 700; text-align: left;&quot;&gt;Inside Global&lt;br&gt;&lt;/span&gt;" style="text;strokeColor=#d6b656;align=center;fillColor=#fff2cc;html=1;verticalAlign=middle;whiteSpace=wrap;rounded=0;fontSize=33;" parent="1" vertex="1">
                    <mxGeometry x="470" y="120" width="230" height="80" as="geometry"/>
                </mxCell>
                <mxCell id="04q5fii_ImJaS9s3ek6Y-13" value="&lt;span style=&quot;font-weight: 700; text-align: left;&quot;&gt;Outside Global&lt;br&gt;&lt;/span&gt;" style="text;strokeColor=#b85450;align=center;fillColor=#f8cecc;html=1;verticalAlign=middle;whiteSpace=wrap;rounded=0;fontSize=33;" parent="1" vertex="1">
                    <mxGeometry x="850" y="190" width="270" height="80" as="geometry"/>
                </mxCell>
            </root>
        </mxGraphModel>
    </diagram>
    <diagram id="EXOpMu_8ZK_LnHzOU8Of" name="NAT-2">
        <mxGraphModel dx="1149" dy="980" grid="1" gridSize="10" guides="1" tooltips="1" connect="1" arrows="1" fold="1" page="1" pageScale="1" pageWidth="1169" pageHeight="827" math="0" shadow="0">
            <root>
                <mxCell id="0"/>
                <mxCell id="1" parent="0"/>
                <mxCell id="FD5OtYARA-xkHN0PwJBW-3" style="edgeStyle=orthogonalEdgeStyle;curved=1;html=1;dashed=1;strokeWidth=2;fontSize=33;endArrow=none;endFill=0;elbow=vertical;entryX=0.1;entryY=0.602;entryDx=0;entryDy=0;entryPerimeter=0;" parent="1" source="FD5OtYARA-xkHN0PwJBW-1" target="FD5OtYARA-xkHN0PwJBW-2" edge="1">
                    <mxGeometry relative="1" as="geometry">
                        <mxPoint x="670" y="414" as="targetPoint"/>
                        <Array as="points">
                            <mxPoint x="732" y="414"/>
                        </Array>
                    </mxGeometry>
                </mxCell>
                <mxCell id="YFS5xoQdtfQXnrOn8D3g-2" style="edgeStyle=orthogonalEdgeStyle;curved=1;html=1;entryX=0.431;entryY=0;entryDx=0;entryDy=0;entryPerimeter=0;dashed=1;strokeWidth=2;fontSize=33;endArrow=classic;endFill=1;elbow=vertical;" parent="1" source="FD5OtYARA-xkHN0PwJBW-1" target="YFS5xoQdtfQXnrOn8D3g-1" edge="1">
                    <mxGeometry relative="1" as="geometry">
                        <Array as="points">
                            <mxPoint x="140" y="414"/>
                            <mxPoint x="140" y="450"/>
                            <mxPoint x="129" y="450"/>
                        </Array>
                    </mxGeometry>
                </mxCell>
                <mxCell id="FD5OtYARA-xkHN0PwJBW-1" value="A" style="whiteSpace=wrap;html=1;fontSize=33;fillColor=#ffe6cc;strokeColor=#d79b00;fontStyle=1" parent="1" vertex="1">
                    <mxGeometry x="240" y="384" width="120" height="60" as="geometry"/>
                </mxCell>
                <mxCell id="FD5OtYARA-xkHN0PwJBW-2" value="" style="ellipse;shape=cloud;whiteSpace=wrap;html=1;fontSize=33;fillColor=#f8cecc;strokeColor=#b85450;" parent="1" vertex="1">
                    <mxGeometry x="690" y="270" width="420" height="244" as="geometry"/>
                </mxCell>
                <mxCell id="FD5OtYARA-xkHN0PwJBW-4" value="75.1.1.1" style="text;strokeColor=none;align=center;fillColor=none;html=1;verticalAlign=middle;whiteSpace=wrap;rounded=0;fontSize=33;fontStyle=1" parent="1" vertex="1">
                    <mxGeometry x="810" y="430" width="200" height="30" as="geometry"/>
                </mxCell>
                <mxCell id="FD5OtYARA-xkHN0PwJBW-8" style="edgeStyle=orthogonalEdgeStyle;curved=1;html=1;dashed=1;strokeWidth=2;fontSize=33;endArrow=classic;endFill=1;elbow=vertical;" parent="1" source="FD5OtYARA-xkHN0PwJBW-5" edge="1">
                    <mxGeometry relative="1" as="geometry">
                        <mxPoint x="520" y="585" as="targetPoint"/>
                    </mxGeometry>
                </mxCell>
                <mxCell id="FD5OtYARA-xkHN0PwJBW-5" value="172.16.10.2" style="text;strokeColor=none;align=center;fillColor=none;html=1;verticalAlign=middle;whiteSpace=wrap;rounded=0;fontSize=33;fontStyle=1" parent="1" vertex="1">
                    <mxGeometry x="280" y="570" width="200" height="30" as="geometry"/>
                </mxCell>
                <mxCell id="FD5OtYARA-xkHN0PwJBW-9" style="edgeStyle=orthogonalEdgeStyle;curved=1;html=1;dashed=1;strokeWidth=2;fontSize=33;endArrow=classic;endFill=1;elbow=vertical;" parent="1" source="FD5OtYARA-xkHN0PwJBW-6" target="FD5OtYARA-xkHN0PwJBW-7" edge="1">
                    <mxGeometry relative="1" as="geometry"/>
                </mxCell>
                <mxCell id="FD5OtYARA-xkHN0PwJBW-6" value="202.208.220.1" style="text;strokeColor=none;align=center;fillColor=none;html=1;verticalAlign=middle;whiteSpace=wrap;rounded=0;fontSize=33;fontStyle=1" parent="1" vertex="1">
                    <mxGeometry x="530" y="570" width="200" height="30" as="geometry"/>
                </mxCell>
                <mxCell id="FD5OtYARA-xkHN0PwJBW-7" value="75.1.1.1" style="text;strokeColor=none;align=center;fillColor=none;html=1;verticalAlign=middle;whiteSpace=wrap;rounded=0;fontSize=33;fontStyle=1" parent="1" vertex="1">
                    <mxGeometry x="830" y="570" width="150" height="30" as="geometry"/>
                </mxCell>
                <mxCell id="FD5OtYARA-xkHN0PwJBW-10" value="2000" style="text;strokeColor=none;align=center;fillColor=none;html=1;verticalAlign=middle;whiteSpace=wrap;rounded=0;fontSize=33;fontStyle=1" parent="1" vertex="1">
                    <mxGeometry x="440" y="510" width="60" height="30" as="geometry"/>
                </mxCell>
                <mxCell id="FD5OtYARA-xkHN0PwJBW-11" value="3000" style="text;strokeColor=none;align=center;fillColor=none;html=1;verticalAlign=middle;whiteSpace=wrap;rounded=0;fontSize=33;fontStyle=1" parent="1" vertex="1">
                    <mxGeometry x="730" y="514" width="60" height="30" as="geometry"/>
                </mxCell>
                <mxCell id="FD5OtYARA-xkHN0PwJBW-12" style="edgeStyle=orthogonalEdgeStyle;curved=1;html=1;dashed=1;strokeWidth=2;fontSize=33;endArrow=classic;endFill=1;elbow=vertical;" parent="1" source="FD5OtYARA-xkHN0PwJBW-13" edge="1">
                    <mxGeometry relative="1" as="geometry">
                        <mxPoint x="520" y="705" as="targetPoint"/>
                    </mxGeometry>
                </mxCell>
                <mxCell id="FD5OtYARA-xkHN0PwJBW-13" value="172.16.10.3" style="text;strokeColor=none;align=center;fillColor=none;html=1;verticalAlign=middle;whiteSpace=wrap;rounded=0;fontSize=33;fontStyle=1" parent="1" vertex="1">
                    <mxGeometry x="280" y="690" width="200" height="30" as="geometry"/>
                </mxCell>
                <mxCell id="FD5OtYARA-xkHN0PwJBW-14" style="edgeStyle=orthogonalEdgeStyle;curved=1;html=1;dashed=1;strokeWidth=2;fontSize=33;endArrow=classic;endFill=1;elbow=vertical;" parent="1" source="FD5OtYARA-xkHN0PwJBW-15" target="FD5OtYARA-xkHN0PwJBW-16" edge="1">
                    <mxGeometry relative="1" as="geometry"/>
                </mxCell>
                <mxCell id="FD5OtYARA-xkHN0PwJBW-15" value="202.208.220.1" style="text;strokeColor=none;align=center;fillColor=none;html=1;verticalAlign=middle;whiteSpace=wrap;rounded=0;fontSize=33;fontStyle=1" parent="1" vertex="1">
                    <mxGeometry x="530" y="690" width="200" height="30" as="geometry"/>
                </mxCell>
                <mxCell id="FD5OtYARA-xkHN0PwJBW-16" value="75.1.1.1" style="text;strokeColor=none;align=center;fillColor=none;html=1;verticalAlign=middle;whiteSpace=wrap;rounded=0;fontSize=33;fontStyle=1" parent="1" vertex="1">
                    <mxGeometry x="840" y="690" width="140" height="30" as="geometry"/>
                </mxCell>
                <mxCell id="FD5OtYARA-xkHN0PwJBW-17" value="2001" style="text;strokeColor=none;align=center;fillColor=none;html=1;verticalAlign=middle;whiteSpace=wrap;rounded=0;fontSize=33;fontStyle=1" parent="1" vertex="1">
                    <mxGeometry x="440" y="630" width="60" height="30" as="geometry"/>
                </mxCell>
                <mxCell id="FD5OtYARA-xkHN0PwJBW-18" value="3001" style="text;strokeColor=none;align=center;fillColor=none;html=1;verticalAlign=middle;whiteSpace=wrap;rounded=0;fontSize=33;fontStyle=1" parent="1" vertex="1">
                    <mxGeometry x="730" y="634" width="60" height="30" as="geometry"/>
                </mxCell>
                <mxCell id="YFS5xoQdtfQXnrOn8D3g-1" value="&lt;span style=&quot;font-weight: 700; text-align: left;&quot;&gt;172.16.10.1&lt;br&gt;172.16.10.2&lt;br&gt;.&lt;br&gt;.&lt;br&gt;.&lt;br&gt;.&lt;br&gt;.&lt;br&gt;&lt;/span&gt;" style="text;strokeColor=none;align=center;fillColor=none;html=1;verticalAlign=middle;whiteSpace=wrap;rounded=0;fontSize=33;" parent="1" vertex="1">
                    <mxGeometry x="30" y="500" width="230" height="320" as="geometry"/>
                </mxCell>
            </root>
        </mxGraphModel>
    </diagram>
    <diagram id="bMq8ek6qo2hsWnotK1u3" name="NAT-3">
        <mxGraphModel dx="1801" dy="539" grid="1" gridSize="10" guides="1" tooltips="1" connect="1" arrows="1" fold="1" page="1" pageScale="1" pageWidth="1169" pageHeight="827" math="0" shadow="0">
            <root>
                <mxCell id="0"/>
                <mxCell id="1" parent="0"/>
                <mxCell id="Daw2nO8rJsFrs5PeHUgp-1" value="A" style="whiteSpace=wrap;html=1;fontSize=33;fillColor=#fff2cc;strokeColor=#d6b656;fontStyle=1" parent="1" vertex="1">
                    <mxGeometry x="240" y="365" width="120" height="60" as="geometry"/>
                </mxCell>
                <mxCell id="Daw2nO8rJsFrs5PeHUgp-2" value="" style="edgeStyle=none;orthogonalLoop=1;jettySize=auto;html=1;dashed=1;strokeWidth=2;fontSize=33;endArrow=none;endFill=0;curved=1;elbow=vertical;" parent="1" edge="1">
                    <mxGeometry width="80" relative="1" as="geometry">
                        <mxPoint x="90" y="394" as="sourcePoint"/>
                        <mxPoint x="230" y="394" as="targetPoint"/>
                        <Array as="points"/>
                    </mxGeometry>
                </mxCell>
                <mxCell id="Daw2nO8rJsFrs5PeHUgp-3" value="" style="edgeStyle=none;orthogonalLoop=1;jettySize=auto;html=1;dashed=1;strokeWidth=2;fontSize=33;endArrow=none;endFill=0;curved=1;elbow=vertical;" parent="1" edge="1">
                    <mxGeometry width="80" relative="1" as="geometry">
                        <mxPoint x="370" y="401" as="sourcePoint"/>
                        <mxPoint x="680.0000000000005" y="400.9999999999998" as="targetPoint"/>
                        <Array as="points"/>
                    </mxGeometry>
                </mxCell>
                <mxCell id="Daw2nO8rJsFrs5PeHUgp-4" value="Internet" style="ellipse;shape=cloud;whiteSpace=wrap;html=1;fontSize=33;fillColor=#f8cecc;strokeColor=#b85450;fontStyle=1" parent="1" vertex="1">
                    <mxGeometry x="670" y="290" width="450" height="210" as="geometry"/>
                </mxCell>
                <mxCell id="Daw2nO8rJsFrs5PeHUgp-5" value="g0/1" style="text;strokeColor=none;align=left;fillColor=none;html=1;verticalAlign=middle;whiteSpace=wrap;rounded=0;fontSize=33;fontStyle=1" parent="1" vertex="1">
                    <mxGeometry x="380" y="330" width="80" height="50" as="geometry"/>
                </mxCell>
                <mxCell id="Daw2nO8rJsFrs5PeHUgp-6" value="g0/0" style="text;strokeColor=none;align=left;fillColor=none;html=1;verticalAlign=middle;whiteSpace=wrap;rounded=0;fontSize=33;fontStyle=1" parent="1" vertex="1">
                    <mxGeometry x="155" y="321" width="85" height="70" as="geometry"/>
                </mxCell>
                <mxCell id="Daw2nO8rJsFrs5PeHUgp-7" value="&lt;span style=&quot;font-weight: 700; text-align: left;&quot;&gt;172.16.10.1&lt;br&gt;172.16.10.2&lt;br&gt;.&lt;br&gt;.&lt;br&gt;.&lt;br&gt;.&lt;br&gt;.&lt;br&gt;&lt;/span&gt;" style="text;strokeColor=none;align=center;fillColor=none;html=1;verticalAlign=middle;whiteSpace=wrap;rounded=0;fontSize=33;" parent="1" vertex="1">
                    <mxGeometry x="-110" y="414" width="230" height="320" as="geometry"/>
                </mxCell>
                <mxCell id="Daw2nO8rJsFrs5PeHUgp-8" value="&lt;span style=&quot;font-weight: 700; text-align: left;&quot;&gt;Inside Local&lt;br&gt;&lt;/span&gt;" style="text;strokeColor=#d6b656;align=center;fillColor=#fff2cc;html=1;verticalAlign=middle;whiteSpace=wrap;rounded=0;fontSize=33;" parent="1" vertex="1">
                    <mxGeometry x="-180" y="290" width="230" height="80" as="geometry"/>
                </mxCell>
                <mxCell id="Daw2nO8rJsFrs5PeHUgp-10" value="&lt;span style=&quot;font-weight: 700; text-align: left;&quot;&gt;Outside Global&lt;br&gt;&lt;/span&gt;" style="text;strokeColor=#b85450;align=center;fillColor=#f8cecc;html=1;verticalAlign=middle;whiteSpace=wrap;rounded=0;fontSize=33;" parent="1" vertex="1">
                    <mxGeometry x="850" y="190" width="270" height="80" as="geometry"/>
                </mxCell>
                <mxCell id="Daw2nO8rJsFrs5PeHUgp-11" value="ip nat inside" style="text;strokeColor=none;align=center;fillColor=none;html=1;verticalAlign=middle;whiteSpace=wrap;rounded=0;fontSize=33;fontStyle=1" parent="1" vertex="1">
                    <mxGeometry x="-430" y="450" width="260" height="30" as="geometry"/>
                </mxCell>
                <mxCell id="Daw2nO8rJsFrs5PeHUgp-12" value="202.208.220.1/24" style="text;strokeColor=none;align=center;fillColor=none;html=1;verticalAlign=middle;whiteSpace=wrap;rounded=0;fontSize=33;fontStyle=1" parent="1" vertex="1">
                    <mxGeometry x="380" y="420" width="290" height="30" as="geometry"/>
                </mxCell>
            </root>
        </mxGraphModel>
    </diagram>
</mxfile>